<svg width="291" height="87" viewBox="0 0 291 87" fill="none" xmlns="http://www.w3.org/2000/svg">
<g clip-path="url(#clip0)">
<path d="M54.8 58.4C55.8 58.4 56.7 59.2 56.7 60.3C56.7 61.3 55.9 62.2 54.8 62.2C53.8 62.2 52.9 61.4 52.9 60.3C52.9 59.2 53.8 58.4 54.8 58.4ZM84.2 46.8C83.2 46.8 82.3 46 82.3 44.9C82.3 43.9 83.1 43 84.2 43C85.2 43 86.1 43.8 86.1 44.9C86.1 45.9 85.2 46.8 84.2 46.8ZM84.2 39.1C81 39.1 78.4 41.7 78.4 44.9C78.4 45.5 78.5 46.1 78.7 46.7L59.6 56.9C58.5 55.3 56.7 54.4 54.8 54.4C52.6 54.4 50.6 55.7 49.6 57.6L32.4 48.6C30.6 47.6 29.2 44.7 29.4 41.9C29.5 40.5 30 39.4 30.7 39C31.2 38.7 31.7 38.8 32.4 39.1L32.5 39.2C37.1 41.6 52 49.4 52.6 49.7C53.6 50.1 54.1 50.3 55.8 49.5L86.6 33.5C87.1 33.3 87.6 32.9 87.6 32.2C87.6 31.3 86.7 30.9 86.7 30.9C84.9 30.1 82.2 28.8 79.6 27.6C74 25 67.6 22 64.8 20.5C62.4 19.2 60.4 20.3 60.1 20.5L59.4 20.8C46.7 27.2 29.9 35.5 28.9 36.1C27.2 37.1 26.1 39.2 26 41.8C25.8 45.9 27.9 50.2 30.9 51.7L49.1 61.1C49.5 63.9 52 66.1 54.8 66.1C58 66.1 60.5 63.6 60.6 60.4L80.6 49.6C81.6 50.4 82.9 50.8 84.2 50.8C87.4 50.8 90 48.2 90 45C90 41.7 87.4 39.1 84.2 39.1Z" fill="#4285FD"/>
</g>
<path d="M111.12 29.85C113.36 29.85 115.133 30.3633 116.44 31.39C117.746 32.3933 118.4 33.7467 118.4 35.45C118.4 38.18 117.28 40.0817 115.04 41.155C118.073 42.205 119.59 44.1417 119.59 46.965C119.59 49.0883 118.68 50.8617 116.86 52.285C115.04 53.685 112.753 54.385 110 54.385C108.553 54.385 106.395 54.2567 103.525 54L103.945 45.495L103.525 29.85H111.12ZM110.665 43.605H107.83L107.795 44.9L108.04 50.605C109.393 50.7217 110.431 50.78 111.155 50.78C112.391 50.78 113.348 50.4767 114.025 49.87C114.725 49.24 115.075 48.33 115.075 47.14C115.075 45.95 114.725 45.0633 114.025 44.48C113.325 43.8967 112.205 43.605 110.665 43.605ZM109.86 33.385H108.145L107.935 40.21H110.21C111.4 40.21 112.31 39.895 112.94 39.265C113.57 38.6117 113.885 37.69 113.885 36.5C113.885 34.4233 112.543 33.385 109.86 33.385ZM122.007 46.685C122.007 43.6983 122.812 41.1667 124.422 39.09C126.032 37.0133 127.911 35.975 130.057 35.975C132.227 35.975 133.907 36.675 135.097 38.075C136.311 39.475 136.917 41.33 136.917 43.64C136.917 46.72 136.136 49.2867 134.572 51.34C133.032 53.37 131.084 54.385 128.727 54.385C126.791 54.385 125.181 53.6617 123.897 52.215C122.637 50.745 122.007 48.9017 122.007 46.685ZM132.997 45.46C132.997 42.0767 131.842 40.385 129.532 40.385C127.129 40.385 125.927 41.9717 125.927 45.145C125.927 46.8017 126.266 48.0967 126.942 49.03C127.619 49.9633 128.506 50.43 129.602 50.43C130.722 50.43 131.562 50.01 132.122 49.17C132.706 48.3067 132.997 47.07 132.997 45.46ZM138.892 46.685C138.892 43.6983 139.697 41.1667 141.307 39.09C142.917 37.0133 144.795 35.975 146.942 35.975C149.112 35.975 150.792 36.675 151.982 38.075C153.195 39.475 153.802 41.33 153.802 43.64C153.802 46.72 153.02 49.2867 151.457 51.34C149.917 53.37 147.969 54.385 145.612 54.385C143.675 54.385 142.065 53.6617 140.782 52.215C139.522 50.745 138.892 48.9017 138.892 46.685ZM149.882 45.46C149.882 42.0767 148.727 40.385 146.417 40.385C144.014 40.385 142.812 41.9717 142.812 45.145C142.812 46.8017 143.15 48.0967 143.827 49.03C144.504 49.9633 145.39 50.43 146.487 50.43C147.607 50.43 148.447 50.01 149.007 49.17C149.59 48.3067 149.882 47.07 149.882 45.46ZM167.747 54.35L161.167 44.655V44.9L161.552 53.125L156.827 54L157.247 45.495L156.827 27.785L161.622 26.91L161.167 43.815L168.167 36.15L171.457 38.39L165.332 44.13L171.737 51.69L167.747 54.35ZM187.057 54.385C185.4 54.385 183.009 54.2567 179.882 54L180.302 45.495L179.882 29.85H189.227C192.377 29.85 194.839 30.795 196.612 32.685C198.385 34.575 199.272 37.2 199.272 40.56C199.272 44.8067 198.175 48.1783 195.982 50.675C193.789 53.1483 190.814 54.385 187.057 54.385ZM187.967 33.63C186.427 33.63 185.342 33.6417 184.712 33.665L184.362 44.9L184.607 50.57C186.567 50.71 187.885 50.78 188.562 50.78C190.405 50.78 191.852 50.0333 192.902 48.54C193.975 47.0467 194.512 44.8767 194.512 42.03C194.512 39.1833 193.987 37.0717 192.937 35.695C191.91 34.3183 190.254 33.63 187.967 33.63ZM205.854 54C204.478 54 203.346 53.5683 202.459 52.705C201.596 51.8183 201.164 50.64 201.164 49.17C201.164 47.6767 201.841 46.3933 203.194 45.32C204.548 44.2233 206.193 43.675 208.129 43.675H210.509V43.08C210.509 41.9367 210.276 41.155 209.809 40.735C209.343 40.315 208.468 40.105 207.184 40.105C206.648 40.105 206.006 40.2217 205.259 40.455C204.536 40.665 203.719 41.0033 202.809 41.47L201.794 38.705C202.798 38.005 204.011 37.375 205.434 36.815C206.881 36.255 208.071 35.975 209.004 35.975C212.668 35.975 214.499 37.7483 214.499 41.295V48.155C214.499 49.4617 214.908 50.92 215.724 52.53L212.014 54.105C211.431 52.985 210.999 51.9817 210.719 51.095C209.436 53.0317 207.814 54 205.854 54ZM207.324 50.43C208.258 50.43 209.319 49.9517 210.509 48.995V46.65C209.273 46.37 208.269 46.23 207.499 46.23C206.029 46.23 205.294 46.8833 205.294 48.19C205.294 48.8667 205.481 49.415 205.854 49.835C206.228 50.2317 206.718 50.43 207.324 50.43ZM219.25 60.755L222.855 52.67L220.265 45.6L216.73 37.095L221.385 36.22L223.625 43.675L224.78 47.21H225.235L226.075 44.655L228.595 36.185L232.9 36.71L226.705 52.985L223.765 61.7L219.25 60.755Z" fill="white"/>
<defs>
<clipPath id="clip0">
<rect width="64" height="64" fill="white" transform="translate(26 11)"/>
</clipPath>
</defs>
</svg>
